<?xml version="1.0" standalone="no"?>
<!DOCTYPE svg PUBLIC "-//W3C//DTD SVG 20010904//EN"
 "http://www.w3.org/TR/2001/REC-SVG-20010904/DTD/svg10.dtd">
<svg version="1.0" xmlns="http://www.w3.org/2000/svg"
 width="1024.000000pt" height="1024.000000pt" viewBox="0 0 1024.000000 1024.000000"
 preserveAspectRatio="xMidYMid meet">

<g transform="translate(0.000000,1024.000000) scale(0.100000,-0.100000)"
fill="#000000" stroke="none">
<path d="M2629 8874 c-50 -32 -53 -46 -57 -262 -4 -182 -6 -202 -21 -198 -9 3
-90 21 -180 42 -196 44 -250 43 -291 -3 -17 -19 -29 -47 -33 -74 -3 -25 -5
-884 -4 -1909 2 -1801 3 -1866 21 -1896 10 -17 27 -36 38 -43 11 -7 120 -28
242 -46 680 -103 1199 -205 1709 -334 109 -28 284 -69 390 -92 219 -47 235
-53 303 -104 57 -44 188 -107 256 -124 163 -39 363 15 521 140 38 31 78 43
314 93 67 15 188 45 270 67 363 100 948 216 1679 334 182 29 340 59 351 66 11
7 28 25 37 40 15 25 16 195 16 1929 0 2089 4 1942 -60 1975 -16 8 -48 15 -70
15 -34 0 -302 -55 -371 -76 -15 -4 -17 16 -21 202 l-3 206 -39 35 -39 36 -141
-6 c-226 -10 -645 -78 -1006 -162 -550 -129 -1069 -331 -1268 -493 -46 -38
-56 -42 -64 -29 -13 24 -160 119 -267 172 -213 106 -599 240 -923 319 -562
139 -1213 229 -1289 180z m456 -279 c226 -32 569 -101 802 -161 568 -146 924
-302 1163 -509 35 -30 69 -55 75 -55 6 0 22 12 36 26 43 47 171 137 296 210
264 154 764 319 1278 423 161 32 439 76 545 86 36 3 75 8 88 11 l22 4 0 -1774
0 -1773 -62 -7 c-149 -17 -539 -89 -731 -135 -598 -145 -1067 -326 -1367 -526
l-108 -72 -48 36 c-392 284 -1257 568 -2096 687 l-128 18 0 1766 c0 972 2
1769 5 1772 3 3 15 4 28 2 12 -2 103 -15 202 -29z"/>
<path d="M6830 8069 c-47 -5 -164 -18 -260 -29 -161 -19 -177 -23 -197 -46
-13 -14 -23 -32 -23 -41 0 -8 36 -52 79 -97 l79 -81 -463 -470 -462 -470 -264
267 c-228 231 -269 268 -301 274 -84 14 -51 44 -876 -780 l-772 -771 0 -47 c0
-85 74 -138 147 -106 17 7 356 334 753 727 l721 715 262 -262 c183 -183 272
-265 294 -271 78 -22 69 -30 617 518 l511 510 71 -69 c61 -60 77 -70 107 -70
32 0 67 20 67 38 0 4 18 124 40 267 22 142 38 267 35 276 -6 17 -36 30 -65 28
-8 -1 -53 -5 -100 -10z"/>
<path d="M6299 7011 l-29 -29 0 -886 0 -885 24 -28 24 -28 228 -3 c159 -2 236
0 256 9 61 25 58 -29 58 937 l0 884 -29 29 -29 29 -237 0 -237 0 -29 -29z"/>
<path d="M4804 6560 c-12 -4 -31 -21 -43 -36 -21 -27 -21 -28 -21 -660 0 -434
3 -641 11 -657 24 -52 49 -57 284 -57 229 0 261 6 285 49 6 13 10 240 10 661
0 706 3 677 -62 699 -37 13 -433 14 -464 1z"/>
<path d="M5570 6283 c-8 -3 -25 -15 -37 -26 l-23 -20 0 -517 0 -517 26 -24
c25 -24 28 -24 246 -27 155 -2 230 0 250 9 60 25 58 7 58 561 l0 507 -24 28
-24 28 -229 2 c-125 1 -235 -1 -243 -4z"/>
<path d="M4060 5942 c-36 -10 -55 -24 -69 -49 -15 -29 -16 -666 -1 -694 24
-43 56 -49 285 -49 235 0 260 5 283 55 9 18 12 120 12 350 l0 325 -29 32 -29
33 -214 2 c-117 1 -224 -2 -238 -5z"/>
<path d="M2335 3516 c-109 -27 -196 -91 -243 -181 -23 -43 -27 -62 -26 -135 0
-68 4 -93 22 -128 54 -102 152 -162 347 -213 182 -47 215 -71 215 -153 0 -72
-66 -118 -170 -117 -105 0 -152 27 -185 104 l-15 37 -117 0 -116 0 6 -49 c16
-137 126 -243 286 -277 178 -37 352 -2 462 95 86 76 119 197 85 315 -34 115
-138 186 -360 245 -146 39 -183 56 -207 95 -23 38 -24 67 -4 106 24 46 68 65
155 65 93 0 136 -21 165 -82 l20 -42 118 -1 117 0 0 25 c0 81 -88 208 -176
253 -97 49 -265 66 -379 38z"/>
<path d="M3771 3514 c-170 -46 -264 -160 -263 -321 1 -166 113 -265 379 -334
177 -47 203 -66 203 -150 0 -51 -27 -91 -75 -109 -38 -14 -150 -12 -188 4 -38
15 -84 66 -93 102 -6 24 -8 24 -126 24 l-120 0 7 -32 c24 -119 85 -208 176
-254 143 -72 365 -71 501 3 114 62 169 153 170 278 0 165 -91 256 -324 321
-51 14 -117 32 -145 40 -29 8 -69 28 -88 45 -30 27 -35 37 -35 74 0 84 74 132
186 123 73 -6 125 -36 149 -86 l20 -42 117 0 c136 0 134 -3 97 97 -41 107
-150 195 -277 222 -72 15 -205 13 -271 -5z"/>
<path d="M3070 2960 l0 -560 120 0 120 0 0 560 0 560 -120 0 -120 0 0 -560z"/>
<path d="M4520 2960 l0 -560 120 0 120 0 0 560 0 560 -120 0 -120 0 0 -560z"/>
<path d="M5005 3508 c-3 -7 -4 -258 -3 -558 l3 -545 110 0 110 0 5 352 5 353
252 -353 252 -353 111 0 110 -1 0 559 0 559 -111 -3 -110 -3 1 -365 c0 -215
-3 -360 -8 -355 -5 6 -85 116 -177 245 -93 129 -208 290 -257 358 l-89 122
-100 0 c-70 0 -101 -4 -104 -12z"/>
<path d="M6205 3509 c-3 -8 -4 -259 -3 -559 l3 -545 265 0 c218 1 277 4 330
18 211 56 351 191 396 383 12 52 15 98 11 184 -8 174 -50 274 -156 372 -68 63
-137 102 -229 130 -58 18 -101 21 -339 25 -224 4 -274 3 -278 -8z m496 -209
c112 -21 184 -75 228 -170 23 -48 26 -68 26 -160 0 -122 -13 -173 -58 -232
-68 -89 -144 -118 -329 -125 l-128 -5 0 351 0 351 104 0 c57 0 127 -5 157 -10z"/>
<path d="M7400 2962 l0 -559 380 -2 380 -2 0 105 0 106 -260 0 -260 0 0 125 0
125 220 0 220 0 0 100 0 100 -220 0 -220 0 0 125 0 125 260 0 260 0 0 105 0
105 -380 0 -380 0 0 -558z"/>
<path d="M4433 2134 c-82 -29 -155 -113 -181 -206 l-10 -38 83 0 83 0 12 35
c21 62 94 95 169 75 54 -14 81 -50 81 -109 0 -39 -5 -52 -30 -76 -25 -24 -41
-30 -90 -33 l-61 -4 3 -72 3 -71 50 -3 c70 -4 111 -19 135 -49 37 -47 19 -124
-36 -153 -39 -21 -143 -19 -178 3 -23 16 -60 63 -69 91 -1 4 -37 5 -80 1 -90
-9 -93 -15 -53 -100 52 -111 150 -167 296 -169 116 -1 177 21 246 88 108 106
100 266 -18 339 l-49 31 34 31 c50 46 69 89 70 155 1 147 -122 251 -296 249
-40 0 -91 -7 -114 -15z"/>
<path d="M5199 2135 c-85 -27 -161 -111 -187 -207 l-10 -38 81 0 82 0 16 39
c22 53 60 75 124 75 63 0 101 -22 121 -69 18 -44 9 -87 -27 -121 -23 -22 -40
-29 -89 -32 l-60 -4 0 -68 c0 -76 4 -80 71 -80 89 0 149 -58 133 -128 -30
-125 -250 -120 -289 7 -7 22 -11 23 -59 17 -28 -3 -63 -6 -78 -6 -24 0 -28 -4
-28 -27 1 -43 34 -108 80 -152 71 -69 187 -100 306 -81 127 20 210 86 240 188
32 109 -6 197 -108 252 l-27 15 30 20 c51 33 81 96 82 168 1 99 -44 166 -147
219 -53 28 -190 35 -257 13z"/>
<path d="M5986 2126 c-150 -63 -216 -191 -216 -418 0 -218 62 -348 198 -415
51 -25 68 -28 152 -28 114 1 166 21 234 89 83 82 116 182 118 347 1 170 -37
284 -120 360 -64 60 -121 82 -222 86 -73 3 -93 0 -144 -21z m222 -162 c15 -11
38 -42 52 -70 23 -45 25 -60 25 -189 0 -129 -2 -144 -25 -189 -35 -70 -68 -91
-139 -91 -116 1 -162 69 -169 251 -7 170 18 249 92 296 40 25 124 20 164 -8z"/>
<path d="M3876 2114 c-17 -11 -70 -44 -118 -73 l-88 -53 0 -79 c0 -49 4 -79
11 -79 16 0 99 49 147 87 l42 34 0 -335 0 -336 90 0 90 0 0 428 0 427 -71 0
c-56 0 -78 -5 -103 -21z"/>
</g>
</svg>
